HIERARCHY
ROOT pelvis
{
  OFFSET 0.000000000 0.000000000 0.000000000
  CHANNELS 6 Xposition Yposition Zposition Zrotation Yrotation Xrotation
  JOINT Spine
  {
    OFFSET 0.000000000 7.098910000 -4.732610000
    CHANNELS 3 Zrotation Yrotation Xrotation
    JOINT Spine1
    {
      OFFSET 0.000000000 9.321421820 -1.643618918
      CHANNELS 3 Zrotation Yrotation Xrotation
      JOINT Spine2
      {
        OFFSET 0.000000000 9.429201273 -0.824953336
        CHANNELS 3 Zrotation Yrotation Xrotation
        JOINT Spine3
        {
          OFFSET 0.000000000 9.465219566 -0.000009457
          CHANNELS 3 Zrotation Yrotation Xrotation
          JOINT Neck
          {
            OFFSET 0.000000000 24.846202406 3.549435011
            CHANNELS 3 Zrotation Yrotation Xrotation
            JOINT Head
            {
              OFFSET 0.000000000 12.816978830 2.259967009
              CHANNELS 3 Zrotation Yrotation Xrotation
              End Site
              {
                OFFSET 0.0 5.0 0.0
              }
            }
          }
          JOINT RightShoulder
          {
            OFFSET -3.199490000 17.277204535 5.332462492
            CHANNELS 3 Zrotation Yrotation Xrotation
            JOINT RightArm
            {
              OFFSET -15.890800000 -0.000005505 0.000000000
              CHANNELS 3 Zrotation Yrotation Xrotation
              JOINT RightForeArm
              {
                OFFSET -29.543600000 -0.000010234 0.000000000
                CHANNELS 3 Zrotation Yrotation Xrotation
                JOINT RightHand
                {
                  OFFSET -23.265200000 -0.000008059 0.000000000
                  CHANNELS 3 Zrotation Yrotation Xrotation
                  JOINT RightHandEnd
                  {
                    OFFSET -6.961150000 -0.000002411 0.000000000
                    CHANNELS 3 Zrotation Yrotation Xrotation
                    End Site
                    {
                      OFFSET 0.0 5.0 0.0
                    }
                  }
                  JOINT RightHandThumb1
                  {
                    OFFSET -2.784459357 -1.856306242 4.640771642
                    CHANNELS 3 Zrotation Yrotation Xrotation
                    End Site
                    {
                      OFFSET 0.0 5.0 0.0
                    }
                  }
                }
              }
            }
          }
          JOINT LeftShoulder
          {
            OFFSET 3.199490000 17.277204535 5.332462492
            CHANNELS 3 Zrotation Yrotation Xrotation
            JOINT LeftArm
            {
              OFFSET 15.890800000 0.000000000 0.000000000
              CHANNELS 3 Zrotation Yrotation Xrotation
              JOINT LeftForeArm
              {
                OFFSET 29.543600000 0.000000000 0.000000000
                CHANNELS 3 Zrotation Yrotation Xrotation
                JOINT LeftHand
                {
                  OFFSET 23.265200000 0.000000000 0.000000000
                  CHANNELS 3 Zrotation Yrotation Xrotation
                  JOINT LeftHandEnd
                  {
                    OFFSET 6.961150000 0.000000000 0.000000000
                    CHANNELS 3 Zrotation Yrotation Xrotation
                    End Site
                    {
                      OFFSET 0.0 5.0 0.0
                    }
                  }
                  JOINT LeftHandThumb1
                  {
                    OFFSET 2.784460000 -1.856305278 4.640771642
                    CHANNELS 3 Zrotation Yrotation Xrotation
                    End Site
                    {
                      OFFSET 0.0 5.0 0.0
                    }
                  }
                }
              }
            }
          }
        }
      }
    }
  }
  JOINT RightUpLeg
  {
    OFFSET -9.491820000 -2.772890000 0.000000000
    CHANNELS 3 Zrotation Yrotation Xrotation
    JOINT RightLeg
    {
      OFFSET 0.000000000 -41.211800000 0.000000000
      CHANNELS 3 Zrotation Yrotation Xrotation
      JOINT RightFoot
      {
        OFFSET -0.000000000 -45.609100000 0.000000000
        CHANNELS 3 Zrotation Yrotation Xrotation
        JOINT RightToeBase
        {
          OFFSET -0.000000000 -5.847492523 16.065826618
          CHANNELS 3 Zrotation Yrotation Xrotation
          End Site
          {
            OFFSET 0.0 5.0 0.0
          }
        }
      }
    }
  }
  JOINT LeftUpLeg
  {
    OFFSET 9.491820000 -2.772890000 0.000000000
    CHANNELS 3 Zrotation Yrotation Xrotation
    JOINT LeftLeg
    {
      OFFSET 0.000000000 -41.211800000 0.000000000
      CHANNELS 3 Zrotation Yrotation Xrotation
      JOINT LeftFoot
      {
        OFFSET -0.000000000 -45.609100000 0.000000000
        CHANNELS 3 Zrotation Yrotation Xrotation
        JOINT LeftToeBase
        {
          OFFSET -0.000000000 -5.847492523 16.065826618
          CHANNELS 3 Zrotation Yrotation Xrotation
          End Site
          {
            OFFSET 0.0 5.0 0.0
          }
        }
      }
    }
  }
}
MOTION
Frames: 9
Frame Time: 0.050000000000
-0.027967735 88.554829172 0.199032612 -1.442060616 -3.901406649 -1.131000282 -0.423004028 -0.101894542 3.982441309 0.295822142 -0.083986293 2.260149263 -0.442898636 2.184849017 4.406938304 -0.535343710 0.268849312 0.845205265 6.501512084 -9.799380982 5.308735034 1.166597959 -21.867373530 -12.701473274 -12.414747032 8.187793935 -4.879647870 38.565155802 40.262850194 -41.086788330 179.908935723 64.425718541 179.631944567 -11.500128359 5.042962398 -5.261399580 -0.001235644 0.002117733 -0.003165284 -5.097186160 0.853950218 18.986690079 13.541098133 6.462899145 2.525994229 -84.202433490 -68.035473555 22.877002288 179.785736458 -46.073645937 -179.651877127 8.526902868 10.140036636 -7.118880410 0.003584041 -0.000965730 0.000927060 -5.001623349 -0.860870220 -19.445668133 -16.036489570 -2.438097818 -24.430246987 -0.488724963 0.217435748 37.112218108 17.913784038 6.331737846 -8.156769748 0.001811264 -0.077331952 2.370753158 14.097030400 -3.606652177 -5.663640278 -0.000855567 0.049837025 37.946888703 -13.893463569 -4.628478435 -30.528048890 -0.005614075 0.170524069 4.056295406
-0.007192959 88.554796525 0.142197495 -1.468741432 -3.816921499 -1.087061780 -0.428789850 -0.098662927 3.959699196 0.290783356 -0.081394230 2.255761956 -0.435713756 2.212832258 4.412899716 -0.537611156 0.273886001 0.846968568 6.453575736 -9.745350013 5.312466341 1.143732442 -21.804904021 -12.723922826 -12.423071470 8.187759824 -4.886105006 38.746337868 40.218431639 -41.179499939 179.855062011 64.330781372 179.593874153 -11.488615998 5.061403953 -5.232925871 -0.001274000 0.002188370 -0.003067100 -5.100477076 0.854390287 18.983240740 13.621096907 6.431526195 2.469467268 -84.550796613 -67.950742901 23.001224891 179.806941425 -46.013876698 -179.667824973 8.408921638 10.042939181 -7.083686773 0.003596792 -0.000916574 0.000756294 -5.001317003 -0.861158071 -19.451859198 -16.082253084 -2.408663998 -24.445504726 -0.409288442 0.164930609 37.055931900 17.917727578 6.208817084 -8.134488508 0.001811264 -0.077331952 2.370753158 14.113048720 -3.577195861 -5.826857257 0.043399662 0.017193882 38.046604860 -13.885099499 -4.706113425 -30.506114321 -0.005614075 0.170524069 4.056295406
0.014043243 88.553978137 0.082794818 -1.493934041 -3.736579768 -1.045638127 -0.434200657 -0.094794546 3.940683876 0.287026321 -0.078534212 2.253216630 -0.428149131 2.243169279 4.418994768 -0.539492915 0.279408411 0.848079975 6.405826233 -9.692502261 5.310791748 1.122714523 -21.740587854 -12.746336112 -12.432305244 8.188013340 -4.893701454 38.929287547 40.175694267 -41.262699782 179.811162493 64.234647200 179.564340191 -11.473417963 5.076748836 -5.201915623 -0.001310704 0.002266216 -0.002959966 -5.104143274 0.854828280 18.978516652 13.698576048 6.397412503 2.413131187 -84.881394728 -67.871683367 23.114754152 179.828083272 -45.959091191 -179.685559200 8.298451333 9.948791281 -7.052807118 0.003618904 -0.000858732 0.000599217 -5.001588547 -0.861486083 -19.456815296 -16.127582908 -2.381750978 -24.462962533 -0.332269701 0.114369636 37.001312900 17.921579013 6.091688172 -8.108949612 0.001811264 -0.077331952 2.370753158 14.126401200 -3.548804632 -5.989692532 0.087079105 -0.014960487 38.149718154 -13.877476282 -4.779848468 -30.485669316 -0.005614075 0.170524069 4.056295406
0.035297713 88.552334397 0.021817596 -1.517352226 -3.661350420 -1.007238043 -0.439112193 -0.090337953 3.925760914 0.284582432 -0.075437475 2.252623884 -0.420284369 2.275504204 4.424877920 -0.540956853 0.285348334 0.848438347 6.359172258 -9.641662289 5.303571809 1.103993578 -21.675578408 -12.768341748 -12.442458061 8.188617275 -4.902095760 39.110776700 40.134301320 -41.335812060 179.778551564 64.138241789 179.544272875 -11.454912250 5.088788607 -5.169238264 -0.001345233 0.002350493 -0.002845200 -5.108103039 0.855256541 18.972679564 13.772239150 6.360852941 2.358095727 -85.189646293 -67.799650509 23.216189315 179.848890920 -45.909945174 -179.704749431 8.197057610 9.859032432 -7.027167271 0.003649348 -0.000792820 0.000458479 -5.002438056 -0.861848546 -19.460434263 -16.171624826 -2.358084290 -24.482483341 -0.258873414 0.066485499 36.949570699 17.925184170 5.982268538 -8.080762572 0.001811264 -0.077331952 2.370753158 14.137063645 -3.522296455 -6.149834910 0.129507580 -0.046136550 38.254746297 -13.870824180 -4.848478181 -30.467123693 -0.005614075 0.170524069 4.056295406
0.056124601 88.549845339 -0.039705248 -1.538741336 -3.592116058 -0.972318316 -0.443398320 -0.085355201 3.915219422 0.283457990 -0.072141125 2.254058144 -0.412203969 2.309438288 4.430192756 -0.541985379 0.291627449 0.847959303 6.314497341 -9.593612603 5.290829909 1.087979285 -21.611045161 -12.789575180 -12.453516102 8.189644893 -4.910956709 39.287601628 40.093888970 -41.398458866 179.758237497 64.042490024 179.534345589 -11.433609398 5.097352070 -5.135834086 -0.001377098 0.002440263 -0.002724335 -5.112272034 0.855668062 18.965911044 13.840859874 6.322181684 2.305437803 -85.471453251 -67.735862195 23.304413987 179.869072404 -45.866989556 -179.725018163 8.106141823 9.775017978 -7.007615470 0.003686931 -0.000719577 0.000336319 -5.003850655 -0.862238723 -19.462647431 -16.213555440 -2.338332044 -24.503889245 -0.190217159 0.021938380 36.901870673 17.928376476 5.882354735 -8.050581505 0.001811264 -0.077331952 2.370753158 14.145061024 -3.498460656 -6.305009002 0.170045393 -0.075866965 38.360171377 -13.865372399 -4.910875762 -30.450859777 -0.005614075 0.170524069 4.056295406
0.076085862 88.546511513 -0.100731304 -1.557882112 -3.529657025 -0.941275852 -0.446934167 -0.079920662 3.909265434 0.283634378 -0.068687475 2.257555457 -0.403995978 2.344537296 4.434582044 -0.542575763 0.298158839 0.846577764 6.272640305 -9.549076748 5.272752237 1.075031891 -21.548147653 -12.809686799 -12.465440914 8.191177596 -4.919972258 39.456653655 40.054086107 -41.450461192 179.750901797 63.948301282 179.534962722 -11.410139374 5.102309134 -5.102690185 -0.001405853 0.002534453 -0.002599083 -5.116565295 0.856056646 18.958407770 13.903308406 6.281768117 2.256176793 -85.723260701 -67.681369035 23.378594754 179.888320447 -45.830660938 -179.745949222 8.026912586 9.697992326 -6.994898521 0.003730330 -0.000639856 0.000234514 -5.005796850 -0.862649002 -19.463421193 -16.252602731 -2.323088463 -24.526963599 -0.127305014 -0.018695540 36.859303427 17.930980163 5.793581964 -8.019090081 0.001811264 -0.077331952 2.370753158 14.150462700 -3.478037575 -6.453020890 0.208102130 -0.103716114 38.464470026 -13.861342944 -4.966017847 -30.437223681 -0.005614075 0.170524069 4.056295406
0.094761584 88.542354342 -0.160227431 -1.574593741 -3.474637761 -0.914441028 -0.449599339 -0.074119549 3.908017165 0.285068793 -0.065123251 2.263112162 -0.395750536 2.380339724 4.437697907 -0.542740054 0.304848711 0.844250022 6.234376702 -9.508703872 5.249683503 1.065453545 -21.488009683 -12.828349781 -12.478168905 8.193302283 -4.928857817 39.614987600 40.014534192 -41.491835109 179.756887043 63.856555411 179.546254525 -11.385235143 5.103573862 -5.070814998 -0.001431103 0.002631867 -0.002471302 -5.120899213 0.856417040 18.950376506 13.958575769 6.240012163 2.211251131 -85.942104748 -67.637028950 23.438173925 179.906318472 -45.801274715 -179.767097111 7.960361587 9.629064717 -6.989640046 0.003778122 -0.000554610 0.000154343 -5.008233221 -0.863071069 -19.462757701 -16.288065380 -2.312859117 -24.551453424 -0.071004429 -0.054932869 36.822854864 17.932814075 5.717386661 -7.986985792 0.001811264 -0.077331952 2.370753158 14.153376318 -3.461699408 -6.591801354 0.243148708 -0.129288945 38.566142148 -13.858943999 -5.013006938 -30.426516730 -0.005614075 0.170524069 4.056295406
0.111759881 88.537415967 -0.217192299 -1.588736095 -3.427595696 -0.892072488 -0.451281124 -0.068046174 3.911502274 0.287695530 -0.061498659 2.270684461 -0.387558343 2.416365675 4.439211852 -0.542504616 0.311598296 0.840955288 6.200401656 -9.473055156 5.222118539 1.059480885 -21.431694383 -12.845267418 -12.491611493 8.196108443 -4.937363644 39.759886563 39.974906404 -41.522783277 179.776193038 63.768089672 179.568078670 -11.359713358 5.101106575 -5.041212086 -0.001452514 0.002731212 -0.002342960 -5.125193456 0.856745042 18.942028869 14.005795441 6.197339051 2.171496792 -86.125648988 -67.603486702 23.482858203 179.922746935 -45.779020891 -179.787997076 7.907244282 9.569188011 -6.992321529 0.003828828 -0.000464873 0.000096566 -5.011103462 -0.863496113 -19.460694685 -16.319330213 -2.308048180 -24.577072180 -0.022027191 -0.086389083 36.793377958 17.933696102 5.654973237 -7.954963843 0.001811264 -0.077331952 2.370753158 14.153940767 -3.450032701 -6.719445718 0.274727390 -0.152238897 38.663737808 -13.858363056 -5.051090845 -30.418987270 -0.005614075 0.170524069 4.056295406
0.126726131 88.531758586 -0.270678188 -1.600211153 -3.388932966 -0.874353458 -0.451877591 -0.061801971 3.919657203 0.291427779 -0.057866372 2.280188921 -0.379509074 2.452126187 4.438824408 -0.541909277 0.318305873 0.836696685 6.171314485 -9.442592472 5.190690040 1.057279106 -21.380180729 -12.860179761 -12.505655893 8.199685081 -4.945281194 39.888921467 39.934925411 -41.543682076 179.808480974 63.683686943 179.600028051 -11.334452688 5.094914931 -5.014853807 -0.001469817 0.002831123 -0.002216093 -5.129372789 0.857037578 18.933576038 14.044261757 6.154193544 2.137628174 -86.272210103 -67.581159013 23.512604906 179.937289865 -45.763962669 -179.808175678 7.868065974 9.519140851 -7.003266760 0.003880946 -0.000371738 0.000061408 -5.014339743 -0.863915039 -19.457304390 -16.345887166 -2.308947987 -24.603502990 0.019084886 -0.112782004 36.771567349 17.933448204 5.607285998 -7.923701044 0.001811264 -0.077331952 2.370753158 14.152318666 -3.443522919 -6.834249538 0.302459562 -0.172274727 38.755881939 -13.859760045 -5.079678644 -30.414823164 -0.005614075 0.170524069 4.056295406
